<svg width="100" height="100" viewBox="0 0 100 100" fill="none" xmlns="http://www.w3.org/2000/svg">
  <!-- Background -->
  <circle cx="50" cy="50" r="45" fill="#2D3748" />
  
  <!-- Book shape -->
  <path d="M30 28C30 26.8954 30.8954 26 32 26H68C69.1046 26 70 26.8954 70 28V72C70 73.1046 69.1046 74 68 74H32C30.8954 74 30 73.1046 30 72V28Z" fill="#4A5568" />
  
  <!-- Book page -->
  <path d="M35 32H65V68H35V32Z" fill="#EDF2F7" />
  
  <!-- Book texture lines -->
  <path d="M40 42H60" stroke="#A0AEC0" stroke-width="2" stroke-linecap="round" />
  <path d="M40 48H60" stroke="#A0AEC0" stroke-width="2" stroke-linecap="round" />
  <path d="M40 54H60" stroke="#A0AEC0" stroke-width="2" stroke-linecap="round" />
  <path d="M40 60H50" stroke="#A0AEC0" stroke-width="2" stroke-linecap="round" />
  
  <!-- Pen -->
  <path d="M55 60L65 40" stroke="#4299E1" stroke-width="3" stroke-linecap="round" />
  <path d="M65 40L68 43" stroke="#4299E1" stroke-width="2" stroke-linecap="round" />
  
  <!-- Decorative elements -->
  <circle cx="50" cy="50" r="40" stroke="#E2E8F0" stroke-width="1" stroke-dasharray="2 2" />
</svg> 